<svg width="63" height="64" viewBox="0 0 63 64" fill="none" xmlns="http://www.w3.org/2000/svg">
<path fill-rule="evenodd" clip-rule="evenodd" d="M54.4688 18.875C54.4688 19.9623 53.5873 20.8438 52.5 20.8438L10.5 20.8438C9.41269 20.8438 8.53125 19.9623 8.53125 18.875C8.53125 17.7877 9.41269 16.9063 10.5 16.9063L52.5 16.9062C53.5873 16.9062 54.4688 17.7877 54.4688 18.875Z" fill="#444A52"/>
<path fill-rule="evenodd" clip-rule="evenodd" d="M54.4688 32C54.4688 33.0873 53.5873 33.9688 52.5 33.9688L10.5 33.9688C9.41269 33.9688 8.53125 33.0873 8.53125 32C8.53125 30.9127 9.41269 30.0313 10.5 30.0313L52.5 30.0312C53.5873 30.0312 54.4688 30.9127 54.4688 32Z" fill="#444A52"/>
<path fill-rule="evenodd" clip-rule="evenodd" d="M54.4688 45.125C54.4688 46.2123 53.5873 47.0938 52.5 47.0938L10.5 47.0938C9.41269 47.0938 8.53125 46.2123 8.53125 45.125C8.53125 44.0377 9.41269 43.1563 10.5 43.1563L52.5 43.1562C53.5873 43.1562 54.4688 44.0377 54.4688 45.125Z" fill="#444A52"/>
</svg>
